<mxfile host="app.diagrams.net" agent="Mozilla/5.0 (Windows NT 10.0; Win64; x64) AppleWebKit/537.36 (KHTML, like Gecko) Chrome/133.0.0.0 Safari/537.36" version="26.0.16">
  <diagram name="Page-1" id="VcgcVQ3smTGqQbMzkUrZ">
    <mxGraphModel dx="1034" dy="454" grid="1" gridSize="10" guides="1" tooltips="1" connect="1" arrows="1" fold="1" page="1" pageScale="1" pageWidth="827" pageHeight="1169" math="0" shadow="0">
      <root>
        <mxCell id="0" />
        <mxCell id="1" parent="0" />
        <mxCell id="NUxJk3UTo4rs5kgtsDef-1" value="" style="whiteSpace=wrap;html=1;aspect=fixed;" parent="1" vertex="1">
          <mxGeometry x="200" y="80" width="750" height="750" as="geometry" />
        </mxCell>
        <mxCell id="NUxJk3UTo4rs5kgtsDef-2" value="&lt;font style=&quot;font-size: 24px;&quot;&gt;GrandTaxiGo&lt;/font&gt;" style="text;html=1;align=center;verticalAlign=middle;whiteSpace=wrap;rounded=0;" parent="1" vertex="1">
          <mxGeometry x="477" y="70" width="196" height="70" as="geometry" />
        </mxCell>
        <mxCell id="NUxJk3UTo4rs5kgtsDef-3" value="Passager" style="shape=umlActor;verticalLabelPosition=bottom;verticalAlign=top;html=1;outlineConnect=0;" parent="1" vertex="1">
          <mxGeometry x="100" y="240" width="50" height="60" as="geometry" />
        </mxCell>
        <mxCell id="NUxJk3UTo4rs5kgtsDef-6" value="" style="ellipse;whiteSpace=wrap;html=1;" parent="1" vertex="1">
          <mxGeometry x="300" y="150" width="90" height="50" as="geometry" />
        </mxCell>
        <mxCell id="NUxJk3UTo4rs5kgtsDef-7" value="Réserver un taxi" style="text;html=1;align=center;verticalAlign=middle;whiteSpace=wrap;rounded=0;" parent="1" vertex="1">
          <mxGeometry x="315" y="160" width="60" height="30" as="geometry" />
        </mxCell>
        <mxCell id="NUxJk3UTo4rs5kgtsDef-8" value="" style="ellipse;whiteSpace=wrap;html=1;" parent="1" vertex="1">
          <mxGeometry x="300" y="220" width="90" height="50" as="geometry" />
        </mxCell>
        <mxCell id="NUxJk3UTo4rs5kgtsDef-9" value="Consulter l&#39;historique des trajets" style="text;html=1;align=center;verticalAlign=middle;whiteSpace=wrap;rounded=0;" parent="1" vertex="1">
          <mxGeometry x="295" y="230" width="100" height="30" as="geometry" />
        </mxCell>
        <mxCell id="NUxJk3UTo4rs5kgtsDef-10" value="" style="ellipse;whiteSpace=wrap;html=1;" parent="1" vertex="1">
          <mxGeometry x="300" y="290" width="90" height="50" as="geometry" />
        </mxCell>
        <mxCell id="NUxJk3UTo4rs5kgtsDef-11" value="Annuler une réservation" style="text;html=1;align=center;verticalAlign=middle;whiteSpace=wrap;rounded=0;" parent="1" vertex="1">
          <mxGeometry x="300" y="300" width="90" height="30" as="geometry" />
        </mxCell>
        <mxCell id="NUxJk3UTo4rs5kgtsDef-12" value="" style="ellipse;whiteSpace=wrap;html=1;" parent="1" vertex="1">
          <mxGeometry x="300" y="350" width="95" height="50" as="geometry" />
        </mxCell>
        <mxCell id="NUxJk3UTo4rs5kgtsDef-13" value="Filtrer les chauffeurs" style="text;html=1;align=center;verticalAlign=middle;whiteSpace=wrap;rounded=0;" parent="1" vertex="1">
          <mxGeometry x="317.5" y="360" width="60" height="30" as="geometry" />
        </mxCell>
        <mxCell id="NUxJk3UTo4rs5kgtsDef-14" value="Chauffeur" style="shape=umlActor;verticalLabelPosition=bottom;verticalAlign=top;html=1;outlineConnect=0;" parent="1" vertex="1">
          <mxGeometry x="100" y="625" width="50" height="60" as="geometry" />
        </mxCell>
        <mxCell id="NUxJk3UTo4rs5kgtsDef-15" value="" style="ellipse;whiteSpace=wrap;html=1;" parent="1" vertex="1">
          <mxGeometry x="770" y="440" width="125" height="60" as="geometry" />
        </mxCell>
        <mxCell id="NUxJk3UTo4rs5kgtsDef-16" value="Authentifications" style="text;html=1;align=center;verticalAlign=middle;whiteSpace=wrap;rounded=0;" parent="1" vertex="1">
          <mxGeometry x="789.75" y="455" width="85.5" height="30" as="geometry" />
        </mxCell>
        <mxCell id="NUxJk3UTo4rs5kgtsDef-17" value="" style="ellipse;whiteSpace=wrap;html=1;" parent="1" vertex="1">
          <mxGeometry x="300" y="420" width="95" height="50" as="geometry" />
        </mxCell>
        <mxCell id="NUxJk3UTo4rs5kgtsDef-18" value="inscription" style="text;html=1;align=center;verticalAlign=middle;whiteSpace=wrap;rounded=0;" parent="1" vertex="1">
          <mxGeometry x="317.5" y="430" width="60" height="30" as="geometry" />
        </mxCell>
        <mxCell id="NUxJk3UTo4rs5kgtsDef-21" value="" style="ellipse;whiteSpace=wrap;html=1;" parent="1" vertex="1">
          <mxGeometry x="300" y="560" width="95" height="50" as="geometry" />
        </mxCell>
        <mxCell id="NUxJk3UTo4rs5kgtsDef-22" value="Publier ses disponibilités" style="text;html=1;align=center;verticalAlign=middle;whiteSpace=wrap;rounded=0;" parent="1" vertex="1">
          <mxGeometry x="316.25" y="570" width="62.5" height="30" as="geometry" />
        </mxCell>
        <mxCell id="NUxJk3UTo4rs5kgtsDef-23" value="" style="ellipse;whiteSpace=wrap;html=1;" parent="1" vertex="1">
          <mxGeometry x="300" y="700" width="95" height="50" as="geometry" />
        </mxCell>
        <mxCell id="NUxJk3UTo4rs5kgtsDef-24" value="gestion de reservation" style="text;html=1;align=center;verticalAlign=middle;whiteSpace=wrap;rounded=0;" parent="1" vertex="1">
          <mxGeometry x="317.5" y="710" width="60" height="30" as="geometry" />
        </mxCell>
        <mxCell id="NUxJk3UTo4rs5kgtsDef-25" value="" style="ellipse;whiteSpace=wrap;html=1;" parent="1" vertex="1">
          <mxGeometry x="300" y="630" width="95" height="50" as="geometry" />
        </mxCell>
        <mxCell id="NUxJk3UTo4rs5kgtsDef-26" value="Consulter l&#39;historique des trajets" style="text;html=1;align=center;verticalAlign=middle;whiteSpace=wrap;rounded=0;" parent="1" vertex="1">
          <mxGeometry x="305" y="640" width="90" height="30" as="geometry" />
        </mxCell>
        <mxCell id="NUxJk3UTo4rs5kgtsDef-27" value="" style="ellipse;whiteSpace=wrap;html=1;" parent="1" vertex="1">
          <mxGeometry x="480" y="670" width="95" height="50" as="geometry" />
        </mxCell>
        <mxCell id="NUxJk3UTo4rs5kgtsDef-28" value="accepter" style="text;html=1;align=center;verticalAlign=middle;whiteSpace=wrap;rounded=0;" parent="1" vertex="1">
          <mxGeometry x="497.5" y="680" width="60" height="30" as="geometry" />
        </mxCell>
        <mxCell id="NUxJk3UTo4rs5kgtsDef-29" value="" style="ellipse;whiteSpace=wrap;html=1;" parent="1" vertex="1">
          <mxGeometry x="480" y="740" width="95" height="50" as="geometry" />
        </mxCell>
        <mxCell id="NUxJk3UTo4rs5kgtsDef-30" value="refuser" style="text;html=1;align=center;verticalAlign=middle;whiteSpace=wrap;rounded=0;" parent="1" vertex="1">
          <mxGeometry x="497.5" y="750" width="60" height="30" as="geometry" />
        </mxCell>
        <mxCell id="NUxJk3UTo4rs5kgtsDef-31" value="" style="endArrow=none;html=1;rounded=0;exitX=0.5;exitY=0.5;exitDx=0;exitDy=0;exitPerimeter=0;entryX=0.093;entryY=0.916;entryDx=0;entryDy=0;entryPerimeter=0;" parent="1" source="NUxJk3UTo4rs5kgtsDef-3" target="NUxJk3UTo4rs5kgtsDef-9" edge="1">
          <mxGeometry width="50" height="50" relative="1" as="geometry">
            <mxPoint x="300" y="510" as="sourcePoint" />
            <mxPoint x="350" y="460" as="targetPoint" />
          </mxGeometry>
        </mxCell>
        <mxCell id="NUxJk3UTo4rs5kgtsDef-32" value="" style="endArrow=none;html=1;rounded=0;exitX=0.5;exitY=0.5;exitDx=0;exitDy=0;exitPerimeter=0;entryX=0;entryY=0.5;entryDx=0;entryDy=0;" parent="1" source="NUxJk3UTo4rs5kgtsDef-3" target="NUxJk3UTo4rs5kgtsDef-11" edge="1">
          <mxGeometry width="50" height="50" relative="1" as="geometry">
            <mxPoint x="135" y="280" as="sourcePoint" />
            <mxPoint x="314" y="267" as="targetPoint" />
          </mxGeometry>
        </mxCell>
        <mxCell id="NUxJk3UTo4rs5kgtsDef-33" value="" style="endArrow=none;html=1;rounded=0;exitX=0.5;exitY=0.5;exitDx=0;exitDy=0;exitPerimeter=0;entryX=0;entryY=0.5;entryDx=0;entryDy=0;" parent="1" source="NUxJk3UTo4rs5kgtsDef-3" target="NUxJk3UTo4rs5kgtsDef-12" edge="1">
          <mxGeometry width="50" height="50" relative="1" as="geometry">
            <mxPoint x="135" y="280" as="sourcePoint" />
            <mxPoint x="310" y="325" as="targetPoint" />
          </mxGeometry>
        </mxCell>
        <mxCell id="NUxJk3UTo4rs5kgtsDef-34" value="" style="endArrow=none;html=1;rounded=0;exitX=0.5;exitY=0.5;exitDx=0;exitDy=0;exitPerimeter=0;entryX=0.085;entryY=0.335;entryDx=0;entryDy=0;entryPerimeter=0;" parent="1" source="NUxJk3UTo4rs5kgtsDef-3" target="NUxJk3UTo4rs5kgtsDef-17" edge="1">
          <mxGeometry width="50" height="50" relative="1" as="geometry">
            <mxPoint x="135" y="280" as="sourcePoint" />
            <mxPoint x="310" y="385" as="targetPoint" />
          </mxGeometry>
        </mxCell>
        <mxCell id="NUxJk3UTo4rs5kgtsDef-35" value="" style="endArrow=none;html=1;rounded=0;exitX=0.5;exitY=0.5;exitDx=0;exitDy=0;exitPerimeter=0;entryX=0.022;entryY=0.794;entryDx=0;entryDy=0;entryPerimeter=0;" parent="1" source="NUxJk3UTo4rs5kgtsDef-14" target="NUxJk3UTo4rs5kgtsDef-17" edge="1">
          <mxGeometry width="50" height="50" relative="1" as="geometry">
            <mxPoint x="135" y="280" as="sourcePoint" />
            <mxPoint x="318" y="447" as="targetPoint" />
          </mxGeometry>
        </mxCell>
        <mxCell id="NUxJk3UTo4rs5kgtsDef-36" value="" style="endArrow=none;html=1;rounded=0;exitX=0.5;exitY=0.5;exitDx=0;exitDy=0;exitPerimeter=0;entryX=0;entryY=0.5;entryDx=0;entryDy=0;" parent="1" source="NUxJk3UTo4rs5kgtsDef-14" target="NUxJk3UTo4rs5kgtsDef-21" edge="1">
          <mxGeometry width="50" height="50" relative="1" as="geometry">
            <mxPoint x="135" y="665" as="sourcePoint" />
            <mxPoint x="312" y="470" as="targetPoint" />
          </mxGeometry>
        </mxCell>
        <mxCell id="NUxJk3UTo4rs5kgtsDef-37" value="" style="endArrow=none;html=1;rounded=0;exitX=0.5;exitY=0.5;exitDx=0;exitDy=0;exitPerimeter=0;entryX=0;entryY=0.5;entryDx=0;entryDy=0;" parent="1" source="NUxJk3UTo4rs5kgtsDef-14" target="NUxJk3UTo4rs5kgtsDef-26" edge="1">
          <mxGeometry width="50" height="50" relative="1" as="geometry">
            <mxPoint x="135" y="665" as="sourcePoint" />
            <mxPoint x="310" y="595" as="targetPoint" />
          </mxGeometry>
        </mxCell>
        <mxCell id="NUxJk3UTo4rs5kgtsDef-38" value="" style="endArrow=none;html=1;rounded=0;exitX=0.5;exitY=0.5;exitDx=0;exitDy=0;exitPerimeter=0;entryX=0.085;entryY=0.364;entryDx=0;entryDy=0;entryPerimeter=0;" parent="1" source="NUxJk3UTo4rs5kgtsDef-14" target="NUxJk3UTo4rs5kgtsDef-23" edge="1">
          <mxGeometry width="50" height="50" relative="1" as="geometry">
            <mxPoint x="135" y="665" as="sourcePoint" />
            <mxPoint x="310" y="665" as="targetPoint" />
          </mxGeometry>
        </mxCell>
        <mxCell id="NUxJk3UTo4rs5kgtsDef-39" value="" style="endArrow=none;dashed=1;html=1;rounded=0;exitX=1;exitY=0.5;exitDx=0;exitDy=0;entryX=0;entryY=0.5;entryDx=0;entryDy=0;" parent="1" source="NUxJk3UTo4rs5kgtsDef-23" target="NUxJk3UTo4rs5kgtsDef-27" edge="1">
          <mxGeometry width="50" height="50" relative="1" as="geometry">
            <mxPoint x="300" y="730" as="sourcePoint" />
            <mxPoint x="350" y="680" as="targetPoint" />
          </mxGeometry>
        </mxCell>
        <mxCell id="NUxJk3UTo4rs5kgtsDef-40" value="" style="endArrow=none;dashed=1;html=1;rounded=0;exitX=1;exitY=1;exitDx=0;exitDy=0;entryX=0;entryY=0.5;entryDx=0;entryDy=0;" parent="1" source="NUxJk3UTo4rs5kgtsDef-23" target="NUxJk3UTo4rs5kgtsDef-29" edge="1">
          <mxGeometry width="50" height="50" relative="1" as="geometry">
            <mxPoint x="405" y="735" as="sourcePoint" />
            <mxPoint x="490" y="705" as="targetPoint" />
          </mxGeometry>
        </mxCell>
        <mxCell id="NUxJk3UTo4rs5kgtsDef-41" value="" style="endArrow=none;html=1;rounded=0;exitX=0.5;exitY=0.5;exitDx=0;exitDy=0;exitPerimeter=0;entryX=0.056;entryY=0.713;entryDx=0;entryDy=0;entryPerimeter=0;" parent="1" source="NUxJk3UTo4rs5kgtsDef-3" target="NUxJk3UTo4rs5kgtsDef-6" edge="1">
          <mxGeometry width="50" height="50" relative="1" as="geometry">
            <mxPoint x="135" y="280" as="sourcePoint" />
            <mxPoint x="314" y="267" as="targetPoint" />
          </mxGeometry>
        </mxCell>
        <mxCell id="NUxJk3UTo4rs5kgtsDef-42" value="" style="endArrow=none;dashed=1;html=1;rounded=0;exitX=1;exitY=0.5;exitDx=0;exitDy=0;entryX=0.5;entryY=0;entryDx=0;entryDy=0;edgeStyle=orthogonalEdgeStyle;" parent="1" source="NUxJk3UTo4rs5kgtsDef-6" target="NUxJk3UTo4rs5kgtsDef-15" edge="1">
          <mxGeometry width="50" height="50" relative="1" as="geometry">
            <mxPoint x="405" y="735" as="sourcePoint" />
            <mxPoint x="490" y="705" as="targetPoint" />
          </mxGeometry>
        </mxCell>
        <mxCell id="NUxJk3UTo4rs5kgtsDef-43" value="" style="endArrow=none;dashed=1;html=1;rounded=0;entryX=0.423;entryY=0.069;entryDx=0;entryDy=0;edgeStyle=orthogonalEdgeStyle;entryPerimeter=0;" parent="1" source="NUxJk3UTo4rs5kgtsDef-9" target="NUxJk3UTo4rs5kgtsDef-15" edge="1">
          <mxGeometry width="50" height="50" relative="1" as="geometry">
            <mxPoint x="400" y="185" as="sourcePoint" />
            <mxPoint x="843" y="450" as="targetPoint" />
            <Array as="points">
              <mxPoint x="823" y="250" />
            </Array>
          </mxGeometry>
        </mxCell>
        <mxCell id="NUxJk3UTo4rs5kgtsDef-45" value="" style="endArrow=none;dashed=1;html=1;rounded=0;entryX=0.329;entryY=0.061;entryDx=0;entryDy=0;edgeStyle=orthogonalEdgeStyle;entryPerimeter=0;exitX=1;exitY=0.75;exitDx=0;exitDy=0;" parent="1" source="NUxJk3UTo4rs5kgtsDef-11" target="NUxJk3UTo4rs5kgtsDef-15" edge="1">
          <mxGeometry width="50" height="50" relative="1" as="geometry">
            <mxPoint x="405" y="260" as="sourcePoint" />
            <mxPoint x="833" y="454" as="targetPoint" />
            <Array as="points">
              <mxPoint x="390" y="320" />
              <mxPoint x="810" y="320" />
              <mxPoint x="810" y="444" />
            </Array>
          </mxGeometry>
        </mxCell>
        <mxCell id="NUxJk3UTo4rs5kgtsDef-47" value="" style="endArrow=none;dashed=1;html=1;rounded=0;edgeStyle=orthogonalEdgeStyle;exitX=1;exitY=0.5;exitDx=0;exitDy=0;" parent="1" source="NUxJk3UTo4rs5kgtsDef-12" target="NUxJk3UTo4rs5kgtsDef-15" edge="1">
          <mxGeometry width="50" height="50" relative="1" as="geometry">
            <mxPoint x="405" y="260" as="sourcePoint" />
            <mxPoint x="833" y="454" as="targetPoint" />
            <Array as="points">
              <mxPoint x="800" y="375" />
            </Array>
          </mxGeometry>
        </mxCell>
        <mxCell id="NUxJk3UTo4rs5kgtsDef-48" value="" style="endArrow=none;dashed=1;html=1;rounded=0;edgeStyle=orthogonalEdgeStyle;exitX=1;exitY=0.5;exitDx=0;exitDy=0;entryX=0.5;entryY=1;entryDx=0;entryDy=0;" parent="1" source="NUxJk3UTo4rs5kgtsDef-21" target="NUxJk3UTo4rs5kgtsDef-15" edge="1">
          <mxGeometry width="50" height="50" relative="1" as="geometry">
            <mxPoint x="405" y="385" as="sourcePoint" />
            <mxPoint x="810" y="454" as="targetPoint" />
            <Array as="points">
              <mxPoint x="395" y="590" />
              <mxPoint x="830" y="590" />
              <mxPoint x="830" y="500" />
            </Array>
          </mxGeometry>
        </mxCell>
        <mxCell id="NUxJk3UTo4rs5kgtsDef-50" value="" style="endArrow=none;dashed=1;html=1;rounded=0;edgeStyle=orthogonalEdgeStyle;entryX=0.581;entryY=0.944;entryDx=0;entryDy=0;entryPerimeter=0;" parent="1" source="NUxJk3UTo4rs5kgtsDef-26" target="NUxJk3UTo4rs5kgtsDef-15" edge="1">
          <mxGeometry width="50" height="50" relative="1" as="geometry">
            <mxPoint x="405" y="595" as="sourcePoint" />
            <mxPoint x="843" y="510" as="targetPoint" />
            <Array as="points">
              <mxPoint x="843" y="655" />
            </Array>
          </mxGeometry>
        </mxCell>
        <mxCell id="NUxJk3UTo4rs5kgtsDef-51" value="" style="endArrow=none;dashed=1;html=1;rounded=0;edgeStyle=orthogonalEdgeStyle;entryX=0.941;entryY=0.741;entryDx=0;entryDy=0;entryPerimeter=0;exitX=0.995;exitY=0.64;exitDx=0;exitDy=0;exitPerimeter=0;" parent="1" edge="1">
          <mxGeometry width="50" height="50" relative="1" as="geometry">
            <mxPoint x="392.5250000000001" y="732" as="sourcePoint" />
            <mxPoint x="885.625" y="484.46000000000004" as="targetPoint" />
            <Array as="points">
              <mxPoint x="886" y="732" />
            </Array>
          </mxGeometry>
        </mxCell>
        <mxCell id="NUxJk3UTo4rs5kgtsDef-52" value="&amp;lt;&amp;lt;include&amp;gt;&amp;gt;" style="text;html=1;align=center;verticalAlign=middle;whiteSpace=wrap;rounded=0;" parent="1" vertex="1">
          <mxGeometry x="540" y="148" width="60" height="30" as="geometry" />
        </mxCell>
        <mxCell id="NUxJk3UTo4rs5kgtsDef-53" value="&amp;lt;&amp;lt;include&amp;gt;&amp;gt;" style="text;html=1;align=center;verticalAlign=middle;whiteSpace=wrap;rounded=0;" parent="1" vertex="1">
          <mxGeometry x="544" y="225" width="60" height="30" as="geometry" />
        </mxCell>
        <mxCell id="NUxJk3UTo4rs5kgtsDef-54" value="&amp;lt;&amp;lt;include&amp;gt;&amp;gt;" style="text;html=1;align=center;verticalAlign=middle;whiteSpace=wrap;rounded=0;" parent="1" vertex="1">
          <mxGeometry x="544" y="286" width="60" height="30" as="geometry" />
        </mxCell>
        <mxCell id="NUxJk3UTo4rs5kgtsDef-56" value="&amp;lt;&amp;lt;include&amp;gt;&amp;gt;" style="text;html=1;align=center;verticalAlign=middle;whiteSpace=wrap;rounded=0;" parent="1" vertex="1">
          <mxGeometry x="547" y="349" width="60" height="30" as="geometry" />
        </mxCell>
        <mxCell id="NUxJk3UTo4rs5kgtsDef-57" value="&amp;lt;&amp;lt;include&amp;gt;&amp;gt;" style="text;html=1;align=center;verticalAlign=middle;whiteSpace=wrap;rounded=0;" parent="1" vertex="1">
          <mxGeometry x="547" y="562" width="60" height="30" as="geometry" />
        </mxCell>
        <mxCell id="NUxJk3UTo4rs5kgtsDef-58" value="&amp;lt;&amp;lt;include&amp;gt;&amp;gt;" style="text;html=1;align=center;verticalAlign=middle;whiteSpace=wrap;rounded=0;" parent="1" vertex="1">
          <mxGeometry x="557.5" y="625" width="60" height="30" as="geometry" />
        </mxCell>
        <mxCell id="NUxJk3UTo4rs5kgtsDef-61" value="&amp;lt;&amp;lt;include&amp;gt;&amp;gt;" style="text;html=1;align=center;verticalAlign=middle;whiteSpace=wrap;rounded=0;" parent="1" vertex="1">
          <mxGeometry x="693.5" y="705" width="60" height="30" as="geometry" />
        </mxCell>
        <mxCell id="NUxJk3UTo4rs5kgtsDef-62" value="&amp;lt;&amp;lt;extende&amp;gt;&amp;gt;" style="text;html=1;align=center;verticalAlign=middle;whiteSpace=wrap;rounded=0;rotation=-30;" parent="1" vertex="1">
          <mxGeometry x="430" y="690" width="20" height="10" as="geometry" />
        </mxCell>
        <mxCell id="NUxJk3UTo4rs5kgtsDef-63" value="&amp;lt;&amp;lt;extende&amp;gt;&amp;gt;" style="text;html=1;align=center;verticalAlign=middle;whiteSpace=wrap;rounded=0;rotation=15;" parent="1" vertex="1">
          <mxGeometry x="395" y="760" width="63.5" height="20" as="geometry" />
        </mxCell>
      </root>
    </mxGraphModel>
  </diagram>
</mxfile>
